<?xml version="1.0" encoding="UTF-8" standalone="no"?>
<!DOCTYPE svg PUBLIC "-//W3C//DTD SVG 1.1//EN" "http://www.w3.org/Graphics/SVG/1.1/DTD/svg11.dtd">
<svg width="100%" height="100%" viewBox="0 0 1542 1282" version="1.1" xmlns="http://www.w3.org/2000/svg" xmlns:xlink="http://www.w3.org/1999/xlink" xml:space="preserve" xmlns:serif="http://www.serif.com/" style="fill-rule:evenodd;clip-rule:evenodd;stroke-linejoin:round;stroke-miterlimit:2;">
    <g transform="matrix(1,0,0,1,721,52)">
        <path d="M0,0L20,0L33,2L45,8L51,16L54,23L56,35L56,45L53,63L46,84L32,113L16,140L1,165L-13,190L-29,217L-43,240L-71,282L-81,296L-97,317L-106,328L-117,341L-128,353L-135,361L-141,368L-118,359L-97,353L-69,348L-43,345L-28,344L10,344L39,347L63,352L81,358L102,368L116,378L128,389L136,399L145,396L152,395L183,395L190,392L198,387L205,386L215,390L227,387L248,377L262,369L265,368L275,368L279,369L286,369L312,357L347,347L377,339L413,327L456,310L498,292L531,277L565,261L600,244L666,211L671,210L675,212L676,219L672,223L610,254L587,265L552,282L519,297L490,310L447,328L407,343L380,352L331,365L310,372L289,382L280,383L273,381L266,382L242,395L227,401L219,403L209,402L205,400L200,401L190,407L186,408L147,409L143,411L149,426L153,443L154,451L154,489L151,515L145,544L137,573L125,608L109,649L86,706L70,744L54,779L40,808L28,830L18,848L6,868L-8,890L-24,914L-37,932L-51,951L-62,965L-75,981L-86,994L-95,1005L-102,1012L-109,1020L-145,1056L-153,1063L-167,1075L-184,1088L-199,1099L-214,1109L-229,1118L-251,1130L-270,1139L-299,1150L-326,1158L-357,1165L-381,1169L-400,1171L-438,1171L-457,1168L-474,1163L-495,1153L-510,1143L-520,1135L-532,1124L-543,1111L-553,1096L-561,1082L-569,1063L-576,1041L-582,1012L-585,984L-585,929L-582,897L-577,864L-570,831L-561,797L-552,768L-541,736L-529,707L-517,682L-507,663L-495,644L-483,627L-472,613L-460,599L-448,586L-432,570L-424,563L-411,552L-394,539L-377,527L-356,514L-340,505L-317,493L-289,481L-264,472L-238,464L-213,458L-210,458L-205,433L-186,343L-177,302L-168,264L-162,233L-159,208L-158,194L-155,191L-151,190L-147,192L-146,194L-146,211L-150,242L-159,284L-171,335L-182,389L-171,382L-159,370L-150,359L-138,345L-125,331L-116,320L-103,304L-89,285L-75,265L-58,239L-43,215L-26,186L-13,163L0,141L15,116L27,94L36,73L41,56L42,51L42,30L39,21L33,16L27,14L-20,14L-50,17L-79,22L-106,29L-132,38L-152,47L-177,60L-198,73L-218,87L-236,101L-249,112L-260,121L-268,129L-276,136L-302,162L-309,170L-320,182L-329,193L-343,210L-352,222L-365,240L-383,267L-394,284L-407,305L-419,327L-430,350L-436,368L-439,384L-440,393L-442,396L-447,397L-451,395L-452,393L-452,381L-449,366L-442,345L-431,321L-417,296L-405,277L-389,252L-376,233L-363,215L-352,201L-339,185L-327,171L-318,161L-307,149L-275,117L-267,110L-252,97L-236,84L-218,71L-197,57L-182,48L-158,35L-130,23L-102,14L-76,8L-45,3L-24,1L0,0ZM97,414L86,423L72,435L59,444L48,450L42,450L37,445L35,442L22,456L15,464L-7,486L-18,494L-24,496L-32,495L-33,491L-33,484L-31,471L-34,475L-45,497L-47,502L-50,504L-56,503L-60,495L-63,484L-66,488L-73,499L-84,511L-101,528L-111,536L-114,539L-119,540L-122,539L-123,532L-112,496L-108,484L-109,482L-119,490L-133,501L-150,515L-164,526L-171,528L-186,528L-189,525L-190,523L-190,503L-189,494L-183,493L-179,494L-179,517L-170,516L-156,505L-143,494L-129,483L-117,474L-111,467L-110,464L-124,464L-150,463L-163,463L-183,465L-200,468L-217,553L-226,607L-233,660L-241,723L-246,760L-249,776L-252,781L-257,782L-260,781L-261,774L-259,771L-254,734L-247,683L-239,618L-229,556L-217,494L-213,475L-213,471L-224,473L-253,481L-284,492L-309,503L-325,511L-346,522L-367,535L-387,549L-401,560L-414,571L-434,589L-444,599L-451,607L-464,622L-479,642L-490,659L-500,676L-514,703L-528,736L-541,773L-552,810L-561,846L-567,878L-571,908L-573,933L-573,980L-570,1009L-565,1035L-558,1058L-550,1076L-542,1091L-532,1105L-521,1117L-511,1127L-496,1138L-478,1148L-459,1155L-444,1158L-435,1159L-404,1159L-377,1156L-341,1149L-311,1141L-285,1132L-265,1123L-249,1115L-229,1104L-209,1091L-195,1081L-182,1071L-171,1062L-157,1050L-141,1035L-115,1009L-108,1001L-98,990L-89,979L-78,966L-52,932L-39,914L-13,875L2,851L18,823L33,794L45,770L58,741L77,696L108,618L119,588L129,557L136,529L141,497L142,485L142,454L139,436L134,421L131,417L118,425L109,428L103,428L99,424L98,414L97,414ZM-23,356L-40,357L-67,360L-90,364L-113,370L-131,377L-160,391L-174,399L-180,400L-185,398L-187,407L-197,455L-192,455L-168,452L-143,452L-113,453L-109,454L-108,461L-107,461L-103,455L-97,445L-90,442L-92,437L-92,423L-91,419L-85,406L-71,382L-62,369L-55,364L-50,363L-46,367L-47,395L-49,406L-52,431L-56,458L-56,465L-54,473L-51,482L-48,478L-37,454L-29,438L-20,426L-13,425L-10,428L-10,435L-19,472L-20,481L-16,478L-8,471L2,461L14,448L21,440L37,424L42,423L46,427L47,437L49,437L61,429L74,418L85,409L98,398L107,397L109,398L112,401L112,414L114,414L124,408L125,405L117,395L105,385L91,376L73,368L52,362L29,358L5,356L-23,356ZM-86,448L-90,464L-103,505L-106,516L-99,510L-83,493L-76,483L-70,468L-71,461L-78,454L-86,448ZM-59,384L-65,394L-76,413L-81,425L-81,434L-80,436L-67,449L-65,445L-62,418L-58,392L-58,384L-59,384Z" style="fill:rgb(83,131,236);"/>
    </g>
</svg>
